<svg width="237" height="64" viewBox="0 0 237 64" fill="none" xmlns="http://www.w3.org/2000/svg">
<path d="M74.146 3.2L81.314 48H74.21L72.994 39.872H64.354L63.138 48H56.674L63.842 3.2H74.146ZM68.642 11.136L65.25 33.792H72.034L68.642 11.136ZM82.6725 48V3.2H89.7125V41.6H101.296V48H82.6725ZM113 29.44V23.04H122.856V37.248C122.856 44.416 119.272 48.512 112.36 48.512C105.448 48.512 101.864 44.416 101.864 37.248V13.952C101.864 6.784 105.448 2.688 112.36 2.688C119.272 2.688 122.856 6.784 122.856 13.952V18.304H116.2V13.504C116.2 10.304 114.792 9.088 112.552 9.088C110.312 9.088 108.904 10.304 108.904 13.504V37.696C108.904 40.896 110.312 42.048 112.552 42.048C114.792 42.048 116.2 40.896 116.2 37.696V29.44H113ZM131.921 13.504V37.696C131.921 40.896 133.329 42.112 135.569 42.112C137.809 42.112 139.217 40.896 139.217 37.696V13.504C139.217 10.304 137.809 9.088 135.569 9.088C133.329 9.088 131.921 10.304 131.921 13.504ZM124.881 37.248V13.952C124.881 6.784 128.657 2.688 135.569 2.688C142.481 2.688 146.257 6.784 146.257 13.952V37.248C146.257 44.416 142.481 48.512 135.569 48.512C128.657 48.512 124.881 44.416 124.881 37.248ZM148.016 13.952C148.016 6.784 151.536 2.688 158.384 2.688C165.232 2.688 168.752 6.784 168.752 13.952V15.36H162.096V13.504C162.096 10.304 160.816 9.088 158.576 9.088C156.336 9.088 155.056 10.304 155.056 13.504C155.056 22.72 168.816 24.448 168.816 37.248C168.816 44.416 165.232 48.512 158.32 48.512C151.408 48.512 147.824 44.416 147.824 37.248V34.496H154.48V37.696C154.48 40.896 155.888 42.048 158.128 42.048C160.368 42.048 161.776 40.896 161.776 37.696C161.776 28.48 148.016 26.752 148.016 13.952ZM168.882 9.6V3.2H190.642V9.6H183.282V48H176.242V9.6H168.882ZM205.001 3.2L212.169 48H205.065L203.849 39.872H195.209L193.993 48H187.529L194.697 3.2H205.001ZM199.497 11.136L196.105 33.792H202.889L199.497 11.136ZM235.415 48H228.247C227.863 46.848 227.607 46.144 227.607 42.496V35.456C227.607 31.296 226.199 29.76 222.999 29.76H220.567V48H213.527V3.2H224.151C231.447 3.2 234.583 6.592 234.583 13.504V17.024C234.583 21.632 233.111 24.64 229.975 26.112C233.495 27.584 234.647 30.976 234.647 35.648V42.56C234.647 44.736 234.711 46.336 235.415 48ZM223.959 9.6H220.567V23.36H223.319C225.943 23.36 227.543 22.208 227.543 18.624V14.208C227.543 11.008 226.455 9.6 223.959 9.6Z" fill="white"/>
<path d="M0 23.7534H48" stroke="white" stroke-width="8.5" stroke-miterlimit="10"/>
<path d="M7 6.78223L40.9401 40.7223" stroke="white" stroke-width="8.5" stroke-miterlimit="10"/>
<path d="M40.9701 6.78223L7.03003 40.7223" stroke="white" stroke-width="8.5" stroke-miterlimit="10"/>
<path d="M23.999 0V48" stroke="white" stroke-width="8.5" stroke-miterlimit="10"/>
</svg>
